<?xml version="1.0" encoding="UTF-8"?>
<svg version="1.1" xmlns="http://www.w3.org/2000/svg" width="64" height="40">
<path d="M0 0 C14.19 0 28.38 0 43 0 C43 7 43 7 42 9 C42.85271484 8.87818359 42.85271484 8.87818359 43.72265625 8.75390625 C47.36964936 8.45557125 49.96209812 8.28236499 53.05078125 10.41796875 C54.83228592 12.20710299 56.44177881 14.0138735 58 16 C58.83144531 16.90105469 58.83144531 16.90105469 59.6796875 17.8203125 C61.50657085 20.83629152 61.32892634 23.128563 61.25 26.625 C61.23453125 27.77226562 61.2190625 28.91953125 61.203125 30.1015625 C61 33 61 33 60 35 C58.35 34.67 56.7 34.34 55 34 C54.67 34.99 54.34 35.98 54 37 C51.25 37.6875 51.25 37.6875 48 38 C47.41420166 37.51966309 46.82840332 37.03932617 46.22485352 36.54443359 C43.14147774 34.40403689 40.88023002 34.6119294 37.15234375 34.6015625 C36.49923721 34.59869232 35.84613068 34.59582214 35.17323303 34.59286499 C33.79736459 34.5908297 32.42146687 34.59632222 31.0456543 34.60888672 C28.94058656 34.62497641 26.83743089 34.60900923 24.73242188 34.58984375 C23.39322494 34.59182577 22.05402919 34.59566861 20.71484375 34.6015625 C19.49917725 34.60494629 18.28351074 34.60833008 17.03100586 34.61181641 C13.71928235 35.03595176 13.04878276 35.5171908 11 38 C8.5 38.375 8.5 38.375 6 38 C4.375 36.5 4.375 36.5 3 35 C2.01 35 1.02 35 0 35 C0 33.68 0 32.36 0 31 C-0.66 31 -1.32 31 -2 31 C-2 30.34 -2 29.68 -2 29 C-1.34 29 -0.68 29 0 29 C0 19.43 0 9.86 0 0 Z M2 2 C2 9.26 2 16.52 2 24 C14.54 24 27.08 24 40 24 C40 16.74 40 9.48 40 2 C27.46 2 14.92 2 2 2 Z M43 11 C42.505 21.395 42.505 21.395 42 32 C45.24565858 32.34055197 45.24565858 32.34055197 47.6875 29.5 C48.450625 28.675 49.21375 27.85 50 27 C51.46484375 28.30208333 52.9296875 29.60416667 54.39453125 30.90625 C56.089448 32.28151241 56.089448 32.28151241 59 32 C59.02688151 30.35425434 59.04634123 28.70838587 59.0625 27.0625 C59.07410156 26.14597656 59.08570312 25.22945312 59.09765625 24.28515625 C59.25949049 22.03406673 59.25949049 22.03406673 58 21 C54.66381769 20.85742811 51.34024394 20.95771843 48 21 C48 17.7 48 14.4 48 11 C46.35 11 44.7 11 43 11 Z M51 13 C51 15.31 51 17.62 51 20 C52.98 20 54.96 20 57 20 C56.20882096 18.00016466 56.20882096 18.00016466 55 16 C54.01 15.67 53.02 15.34 52 15 C51.67 14.34 51.34 13.68 51 13 Z M2 26 C2 27.98 2 29.96 2 32 C4.22237838 32.22054055 4.22237838 32.22054055 6.125 30.125 C8.22054055 28.22237838 8.22054055 28.22237838 8 26 C6.02 26 4.04 26 2 26 Z M9 26 C13.05505937 32.09574003 13.05505937 32.09574003 16.9543457 32.68115234 C18.01741943 32.64973145 19.08049316 32.61831055 20.17578125 32.5859375 C21.33271484 32.56660156 22.48964844 32.54726563 23.68164062 32.52734375 C25.47891602 32.45193359 25.47891602 32.45193359 27.3125 32.375 C28.53001953 32.34792969 29.74753906 32.32085937 31.00195312 32.29296875 C34.00310498 32.22235341 37.00064712 32.12376972 40 32 C40 30.02 40 28.04 40 26 C29.77 26 19.54 26 9 26 Z M7 29 C6.34 30.65 5.68 32.3 5 34 C5.66 34 6.32 34 7 34 C7 34.66 7 35.32 7 36 C8.65 35.67 10.3 35.34 12 35 C12.33 34.01 12.66 33.02 13 32 C11.68798827 30.43750191 11.68798827 30.43750191 10 29 C9.01 29 8.02 29 7 29 Z M47 30 C47 31.65 47 33.3 47 35 C49.475 35.495 49.475 35.495 52 36 C52.66 34.68 53.32 33.36 54 32 C52.62514468 30.45833358 52.62514468 30.45833358 51 29 C48.9254644 28.8509288 48.9254644 28.8509288 47 30 Z " fill="#698B99" transform="translate(3,1)"/>
<path d="M0 0 C3.96 0 7.92 0 12 0 C12 0.66 12 1.32 12 2 C8.04 2 4.08 2 0 2 C0 1.34 0 0.68 0 0 Z " fill="#6B8B99" transform="translate(28,21)"/>
<path d="" fill="#60809F" transform="translate(0,0)"/>
</svg>
