<?xml version="1.0" encoding="UTF-8"?>
<svg version="1.1" xmlns="http://www.w3.org/2000/svg" width="64" height="64">
<path d="M0 0 C10.56 0 21.12 0 32 0 C32.495 2.97 32.495 2.97 33 6 C33.433125 5.195625 33.86625 4.39125 34.3125 3.5625 C36 1 36 1 39 0 C38.85691406 0.92619141 38.85691406 0.92619141 38.7109375 1.87109375 C37.99841559 7.31442977 38.05148108 11.69472015 39.52734375 16.9921875 C40 19 40 19 40 23 C40.90492187 23.03867187 40.90492187 23.03867187 41.828125 23.078125 C45.48657636 23.33775703 48.28987813 23.59167992 51.5 25.4375 C53.50608576 28.86456317 53.62316051 31.9319609 53.82421875 35.85546875 C53.76567225 37.9813314 53.76567225 37.9813314 55 39 C55.07205511 40.68608966 55.08386068 42.37500659 55.0625 44.0625 C55.05347656 44.98160156 55.04445313 45.90070312 55.03515625 46.84765625 C55.02355469 47.55792969 55.01195313 48.26820312 55 49 C54.34 49 53.68 49 53 49 C52.896875 50.11375 52.79375 51.2275 52.6875 52.375 C52.460625 53.57125 52.23375 54.7675 52 56 C48.31905504 58.45396331 45.27624235 58.69693286 41 58 C38.5 56.3125 38.5 56.3125 37 54 C37 52.35 37 50.7 37 49 C33.7 49 30.4 49 27 49 C27 48.34 27 47.68 27 47 C26.01 47 25.02 47 24 47 C23.79375 47.721875 23.5875 48.44375 23.375 49.1875 C21.34230405 53.34528718 18.17179512 55.91410244 14 58 C8.44468752 58.5072965 3.58169764 58.76260422 -1.5 56.3125 C-8.80362538 49.55664653 -8.80362538 49.55664653 -9.203125 44.35546875 C-9.21859375 43.31003906 -9.2340625 42.26460937 -9.25 41.1875 C-9.27578125 40.14980469 -9.3015625 39.11210938 -9.328125 38.04296875 C-8.95678847 34.5992645 -7.8472857 32.88195467 -6 30 C-5.44327186 27.80480783 -5.44327186 27.80480783 -5.3125 25.6875 C-5.209375 24.470625 -5.10625 23.25375 -5 22 C-5.99 22 -6.98 22 -8 22 C-8 21.34 -8 20.68 -8 20 C-6.35 20 -4.7 20 -3 20 C-2.95101563 19.39414062 -2.90203125 18.78828125 -2.8515625 18.1640625 C-2.77679687 17.32617188 -2.70203125 16.48828125 -2.625 15.625 C-2.55539063 14.81289063 -2.48578125 14.00078125 -2.4140625 13.1640625 C-1.83518767 8.74058505 -0.87491206 4.37456029 0 0 Z M3 2 C2.505 4.041875 2.01 6.08375 1.5 8.1875 C1.2215625 9.33605469 0.943125 10.48460937 0.65625 11.66796875 C0.08504615 14.56818829 -0.13283779 17.06096385 0 20 C1.32 20 2.64 20 4 20 C4.13277344 19.08476562 4.26554688 18.16953125 4.40234375 17.2265625 C4.57894531 16.03804687 4.75554688 14.84953125 4.9375 13.625 C5.11152344 12.44164062 5.28554687 11.25828125 5.46484375 10.0390625 C6 7 6 7 7 5 C14.26 4.67 21.52 4.34 29 4 C29 3.34 29 2.68 29 2 C20.42 2 11.84 2 3 2 Z M8 8 C6.42253049 11.72856429 6.93386666 16.03199962 7 20 C9.64 20.33 12.28 20.66 15 21 C15 16.05 15 11.1 15 6 C10.95377498 5.63019987 10.95377498 5.63019987 8 8 Z M17 6 C17 11.28 17 16.56 17 22 C20.00313748 23.50156874 22.79067522 23.09281204 26.125 23.0625 C27.40632813 23.05347656 28.68765625 23.04445313 30.0078125 23.03515625 C30.99523438 23.02355469 31.98265625 23.01195313 33 23 C32.68853528 21.10399631 32.37578283 19.20820413 32.0625 17.3125 C31.88847656 16.25675781 31.71445312 15.20101563 31.53515625 14.11328125 C31.06886987 11.40065172 30.53979276 8.69896382 30 6 C25.71 6 21.42 6 17 6 Z M34 11 C35 15 35 15 35 15 Z M35 15 C36 19 36 19 36 19 Z M36 20 C37 23 37 23 37 23 Z M-3 22 C-3 23.65 -3 25.3 -3 27 C-2.30519531 26.68289062 -1.61039062 26.36578125 -0.89453125 26.0390625 C2.26188644 24.90598948 4.97280167 24.59519989 8.3125 24.375 C9.38113281 24.30023437 10.44976562 24.22546875 11.55078125 24.1484375 C12.35902344 24.09945313 13.16726562 24.05046875 14 24 C14 23.67 14 23.34 14 23 C8.33357449 21.77482692 2.76291482 21.90771133 -3 22 Z M23 25 C23.34933594 25.68707031 23.69867188 26.37414062 24.05859375 27.08203125 C24.51363281 27.98308594 24.96867187 28.88414063 25.4375 29.8125 C25.88996094 30.70582031 26.34242187 31.59914063 26.80859375 32.51953125 C28 35 28 35 29 38 C36.26 38 43.52 38 51 38 C51 37.34 51 36.68 51 36 C50.01 36 49.02 36 48 36 C48 34.35 48 32.7 48 31 C48.66 31 49.32 31 50 31 C49.42287165 28.9660617 49.42287165 28.9660617 48 27 C40.06729314 24.48994947 31.24145101 24.7327097 23 25 Z M-4.8125 33.375 C-6.89014695 37.96769326 -7.4444971 41.31841512 -5.875 46.125 C-3.99116183 50.55159731 -1.65009042 52.85693525 2.8203125 54.78515625 C7.46912075 56.30741307 10.77234662 56.02786219 15.23828125 54.0625 C18.51389102 52.08696595 20.32206365 49.35587269 22 46 C22.54644038 41.01933027 22.54204675 37.1041693 20.3125 32.5625 C17.28115306 29.20343988 15.25860352 27.30644369 10.66796875 26.68359375 C3.7907821 26.36396439 -0.48764586 27.70794974 -4.8125 33.375 Z M23 31 C24 33 24 33 24 33 Z M24 33 C25 35 25 35 25 35 Z M25 35 C25 38.3 25 41.6 25 45 C25.66 45 26.32 45 27 45 C26.67 41.7 26.34 38.4 26 35 C25.67 35 25.34 35 25 35 Z M29 40 C29 42.31 29 44.62 29 47 C33.01977842 47.27465363 33.01977842 47.27465363 37 47 C37.66 46.34 38.32 45.68 39 45 C41.29851498 42.70148502 41.87453127 42.6601709 45 42.5625 C48.48536865 42.72506384 50.47374321 43.47374321 53 46 C53.042721 44.33388095 53.04063832 42.66617115 53 41 C51.97285339 39.7494687 51.97285339 39.7494687 49.77514648 39.88647461 C48.81680908 39.89171143 47.85847168 39.89694824 46.87109375 39.90234375 C45.83662109 39.90556641 44.80214844 39.90878906 43.73632812 39.91210938 C42.64771484 39.92048828 41.55910156 39.92886719 40.4375 39.9375 C39.34501953 39.94201172 38.25253906 39.94652344 37.12695312 39.95117188 C34.41791505 39.96300174 31.70898401 39.97948457 29 40 Z M40 47 C39.66666667 50 39.66666667 50 40 53 C41.88500271 55.31563087 41.88500271 55.31563087 45 55.25 C48.11499729 55.31563087 48.11499729 55.31563087 50 53 C50.33333333 50 50.33333333 50 50 47 C48.11499729 44.68436913 48.11499729 44.68436913 45 44.75 C41.88500271 44.68436913 41.88500271 44.68436913 40 47 Z " fill="#698D99" transform="translate(9,3)"/>
<path d="M0 0 C3.39488422 2.05107588 4.80323081 3.70484621 7 7 C7.66624845 11.07463524 7.94496094 15.24356703 5.94921875 18.953125 C3.55845406 21.85871513 1.60292854 23.79819245 -2.171875 24.2734375 C-9.98876369 24.58137554 -9.98876369 24.58137554 -13.5625 21.625 C-17.3057723 17.59378368 -17.39037018 14.90519941 -17.359375 9.55078125 C-16.78039966 5.44131496 -15.00085071 3.78650423 -12 1 C-8.30044901 -0.84977549 -4.03799166 -0.47056911 0 0 Z M-9 3 C-9.33 4.32 -9.66 5.64 -10 7 C-11.32 7.33 -12.64 7.66 -14 8 C-14 10.64 -14 13.28 -14 16 C-12.68 16.33 -11.36 16.66 -10 17 C-9.67 18.32 -9.34 19.64 -9 21 C-6.36 21 -3.72 21 -1 21 C-0.67 19.68 -0.34 18.36 0 17 C1.32 16.67 2.64 16.34 4 16 C4 13.36 4 10.72 4 8 C2.68 7.67 1.36 7.34 0 7 C-0.33 5.68 -0.66 4.36 -1 3 C-3.64 3 -6.28 3 -9 3 Z " fill="#6A8C98" transform="translate(22,32)"/>
<path d="M0 0 C0 0.99 0 1.98 0 3 C0.99 3 1.98 3 3 3 C3.36 8.4 3.36 8.4 1.875 10.875 C-0.88090884 12.52854531 -2.85075452 12.39365568 -6 12 C-7.875 10.875 -7.875 10.875 -9 9 C-9.39365568 5.85075452 -9.52854531 3.88090884 -7.875 1.125 C-5.21965017 -0.4682099 -3.03210482 -0.20214032 0 0 Z M-5 3 C-5.33 4.65 -5.66 6.3 -6 8 C-4.34385343 8.38218767 -2.67542976 8.71395102 -1 9 C0.29633621 7.93354885 0.29633621 7.93354885 0.0625 5.4375 C0.041875 4.633125 0.02125 3.82875 0 3 C-1.65 3 -3.3 3 -5 3 Z " fill="#6B8B98" transform="translate(20,38)"/>
<path d="M0 0 C1.32 0 2.64 0 4 0 C3.34 1.65 2.68 3.3 2 5 C3.65 4.34 5.3 3.68 7 3 C6.67 4.65 6.34 6.3 6 8 C4.00045254 8.04254356 1.99958364 8.04080783 0 8 C-1 7 -1 7 -1.125 4 C-1 1 -1 1 0 0 Z " fill="#6B8C99" transform="translate(51,49)"/>
<path d="M0 0 C1.32 0 2.64 0 4 0 C4 1.32 4 2.64 4 4 C2.68 4 1.36 4 0 4 C0 2.68 0 1.36 0 0 Z " fill="#6B8B98" transform="translate(15,42)"/>
</svg>
