<?xml version="1.0" encoding="UTF-8"?>
<svg version="1.1" xmlns="http://www.w3.org/2000/svg" width="64" height="30">
<path d="M0 0 C0.86603851 0.00444122 1.73207703 0.00888245 2.62435913 0.01345825 C3.60522491 0.01360931 4.5860907 0.01376038 5.59667969 0.01391602 C6.6581723 0.02423859 7.71966492 0.03456116 8.81332397 0.04519653 C10.44048843 0.04944138 10.44048843 0.04944138 12.1005249 0.05377197 C15.57521461 0.06499325 19.04964929 0.09010141 22.52426147 0.11550903 C24.87582026 0.12553631 27.22738307 0.1346626 29.57894897 0.14285278 C35.35248517 0.16493897 41.12583005 0.19948213 46.89926147 0.24050903 C47.39426147 5.19050903 47.39426147 5.19050903 47.89926147 10.24050903 C50.06488647 10.20957153 50.06488647 10.20957153 52.27426147 10.17800903 C56.64926147 10.11550903 56.64926147 10.11550903 58.89926147 11.24050903 C59.31332397 14.40066528 59.31332397 14.40066528 59.52426147 18.30300903 C59.5990271 19.5933606 59.67379272 20.88371216 59.75082397 22.21316528 C59.79980835 23.21218872 59.84879272 24.21121216 59.89926147 25.24050903 C58.90926147 25.24050903 57.91926147 25.24050903 56.89926147 25.24050903 C56.58988647 25.87988403 56.28051147 26.51925903 55.96176147 27.17800903 C54.89926147 29.24050903 54.89926147 29.24050903 53.89926147 30.24050903 C48.53530388 30.70694013 48.53530388 30.70694013 46.02426147 28.86550903 C44.89926147 27.24050903 44.89926147 27.24050903 44.89926147 25.24050903 C36.64926147 25.24050903 28.39926147 25.24050903 19.89926147 25.24050903 C19.23926147 26.56050903 18.57926147 27.88050903 17.89926147 29.24050903 C16.89926147 30.24050903 16.89926147 30.24050903 14.02426147 30.49050903 C10.89926147 30.24050903 10.89926147 30.24050903 9.02426147 28.86550903 C7.89926147 27.24050903 7.89926147 27.24050903 7.89926147 25.24050903 C7.11680054 25.2521106 6.3343396 25.26371216 5.52816772 25.27566528 C4.51625366 25.28468872 3.5043396 25.29371216 2.46176147 25.30300903 C1.45242554 25.3146106 0.4430896 25.32621216 -0.59683228 25.33816528 C-3.10073853 25.24050903 -3.10073853 25.24050903 -4.10073853 24.24050903 C-4.35230122 20.60151728 -4.28596078 16.9496723 -4.28823853 13.30300903 C-4.30048462 12.27498169 -4.31273071 11.24695435 -4.3253479 10.18777466 C-4.32728149 9.20615356 -4.32921509 8.22453247 -4.33120728 7.21316528 C-4.33531616 6.30832397 -4.33942505 5.40348267 -4.34365845 4.47122192 C-4.00983213 1.40572335 -3.09179658 0.35397314 0 0 Z M-1.10073853 3.24050903 C-1.10073853 3.57050903 -1.10073853 3.90050903 -1.10073853 4.24050903 C14.07926147 4.24050903 29.25926147 4.24050903 44.89926147 4.24050903 C44.89926147 3.91050903 44.89926147 3.58050903 44.89926147 3.24050903 C29.71926147 3.24050903 14.53926147 3.24050903 -1.10073853 3.24050903 Z M-2.10073853 7.24050903 C-2.10073853 8.23050903 -2.10073853 9.22050903 -2.10073853 10.24050903 C-0.45073853 10.24050903 1.19926147 10.24050903 2.89926147 10.24050903 C2.89926147 9.25050903 2.89926147 8.26050903 2.89926147 7.24050903 C1.24926147 7.24050903 -0.40073853 7.24050903 -2.10073853 7.24050903 Z M4.89926147 7.24050903 C4.89926147 8.23050903 4.89926147 9.22050903 4.89926147 10.24050903 C6.54926147 10.24050903 8.19926147 10.24050903 9.89926147 10.24050903 C9.89926147 9.25050903 9.89926147 8.26050903 9.89926147 7.24050903 C8.24926147 7.24050903 6.59926147 7.24050903 4.89926147 7.24050903 Z M11.89926147 7.24050903 C11.89926147 8.23050903 11.89926147 9.22050903 11.89926147 10.24050903 C13.54926147 10.24050903 15.19926147 10.24050903 16.89926147 10.24050903 C16.89926147 9.25050903 16.89926147 8.26050903 16.89926147 7.24050903 C15.24926147 7.24050903 13.59926147 7.24050903 11.89926147 7.24050903 Z M18.89926147 7.24050903 C18.89926147 8.23050903 18.89926147 9.22050903 18.89926147 10.24050903 C20.54926147 10.24050903 22.19926147 10.24050903 23.89926147 10.24050903 C23.89926147 9.25050903 23.89926147 8.26050903 23.89926147 7.24050903 C22.24926147 7.24050903 20.59926147 7.24050903 18.89926147 7.24050903 Z M25.89926147 7.24050903 C25.89926147 8.23050903 25.89926147 9.22050903 25.89926147 10.24050903 C27.54926147 10.24050903 29.19926147 10.24050903 30.89926147 10.24050903 C30.89926147 9.25050903 30.89926147 8.26050903 30.89926147 7.24050903 C29.24926147 7.24050903 27.59926147 7.24050903 25.89926147 7.24050903 Z M32.89926147 7.24050903 C32.89926147 8.23050903 32.89926147 9.22050903 32.89926147 10.24050903 C34.54926147 10.24050903 36.19926147 10.24050903 37.89926147 10.24050903 C37.89926147 9.25050903 37.89926147 8.26050903 37.89926147 7.24050903 C36.24926147 7.24050903 34.59926147 7.24050903 32.89926147 7.24050903 Z M39.89926147 7.24050903 C39.89926147 12.19050903 39.89926147 17.14050903 39.89926147 22.24050903 C40.55926147 22.24050903 41.21926147 22.24050903 41.89926147 22.24050903 C41.89926147 17.29050903 41.89926147 12.34050903 41.89926147 7.24050903 C41.23926147 7.24050903 40.57926147 7.24050903 39.89926147 7.24050903 Z M43.89926147 7.24050903 C43.89926147 12.19050903 43.89926147 17.14050903 43.89926147 22.24050903 C46.07841501 20.46739314 46.07841501 20.46739314 46.16488647 18.21707153 C46.15973022 17.44105591 46.15457397 16.66504028 46.14926147 15.86550903 C46.15699585 14.70921997 46.15699585 14.70921997 46.16488647 13.52957153 C45.98510769 10.84364427 45.98510769 10.84364427 43.89926147 7.24050903 Z M-2.10073853 13.24050903 C-2.10073853 15.88050903 -2.10073853 18.52050903 -2.10073853 21.24050903 C-0.52187013 22.81937743 1.09218484 22.52370646 3.27426147 22.61550903 C5.69400774 22.67491537 5.69400774 22.67491537 7.89926147 22.24050903 C10.05528841 19.90301738 10.05528841 19.90301738 10.89926147 17.24050903 C7.26926147 17.24050903 3.63926147 17.24050903 -0.10073853 17.24050903 C-0.10073853 16.25050903 -0.10073853 15.26050903 -0.10073853 14.24050903 C11.77926147 14.24050903 23.65926147 14.24050903 35.89926147 14.24050903 C35.89926147 15.23050903 35.89926147 16.22050903 35.89926147 17.24050903 C29.62926147 17.24050903 23.35926147 17.24050903 16.89926147 17.24050903 C19.1422961 22.27044605 19.1422961 22.27044605 21.8921814 22.80813599 C22.63057251 22.7819519 23.36896362 22.75576782 24.12973022 22.72879028 C24.93217163 22.712677 25.73461304 22.69656372 26.56137085 22.67996216 C27.81143921 22.61712036 27.81143921 22.61712036 29.08676147 22.55300903 C29.93174194 22.53045044 30.77672241 22.50789185 31.64730835 22.48464966 C33.73204945 22.42575867 35.81587952 22.33607701 37.89926147 22.24050903 C37.89926147 19.27050903 37.89926147 16.30050903 37.89926147 13.24050903 C24.69926147 13.24050903 11.49926147 13.24050903 -2.10073853 13.24050903 Z M47.89926147 13.24050903 C47.89926147 14.89050903 47.89926147 16.54050903 47.89926147 18.24050903 C50.20926147 18.24050903 52.51926147 18.24050903 54.89926147 18.24050903 C54.89926147 17.58050903 54.89926147 16.92050903 54.89926147 16.24050903 C55.55926147 16.24050903 56.21926147 16.24050903 56.89926147 16.24050903 C56.56926147 15.25050903 56.23926147 14.26050903 55.89926147 13.24050903 C53.25926147 13.24050903 50.61926147 13.24050903 47.89926147 13.24050903 Z M11.89926147 20.24050903 C11.23926147 21.56050903 10.57926147 22.88050903 9.89926147 24.24050903 C10.88926147 25.72550903 10.88926147 25.72550903 11.89926147 27.24050903 C13.54926147 26.91050903 15.19926147 26.58050903 16.89926147 26.24050903 C16.89926147 24.59050903 16.89926147 22.94050903 16.89926147 21.24050903 C15.24926147 20.91050903 13.59926147 20.58050903 11.89926147 20.24050903 Z M47.89926147 21.24050903 C47.89926147 22.89050903 47.89926147 24.54050903 47.89926147 26.24050903 C50.37426147 26.73550903 50.37426147 26.73550903 52.89926147 27.24050903 C53.55926147 25.92050903 54.21926147 24.60050903 54.89926147 23.24050903 C54.23926147 22.25050903 53.57926147 21.26050903 52.89926147 20.24050903 C49.97379707 20.01690224 49.97379707 20.01690224 47.89926147 21.24050903 Z " fill="#6A8C99" transform="translate(4.100738525390625,-0.240509033203125)"/>
<path d="M0 0 C0.99 0.33 1.98 0.66 3 1 C2.67 2.32 2.34 3.64 2 5 C1.01 4.67 0.02 4.34 -1 4 C-0.67 2.68 -0.34 1.36 0 0 Z " fill="#6B8B98" transform="translate(54,21)"/>
<path d="M0 0 C0.99 0.33 1.98 0.66 3 1 C2.67 2.32 2.34 3.64 2 5 C1.01 4.67 0.02 4.34 -1 4 C-0.67 2.68 -0.34 1.36 0 0 Z " fill="#6B8B99" transform="translate(17,21)"/>
</svg>
