<?xml version="1.0" encoding="UTF-8"?>
<svg version="1.1" xmlns="http://www.w3.org/2000/svg" width="64" height="27">
<path d="M0 0 C3.45294853 1.53189845 7.08175695 2.27272857 10.765625 3.0625 C13.73053642 4.17374305 14.67450263 5.20870177 16.18359375 7.96875 C16.55820191 10.70588695 16.32258096 13.18900584 16.18359375 15.96875 C14.79140625 16.0925 14.79140625 16.0925 13.37109375 16.21875 C10.0877885 16.61697968 10.0877885 16.61697968 8.74609375 19.03125 C8.23046875 19.670625 7.71484375 20.31 7.18359375 20.96875 C2.8050388 21.43788089 0.88774668 21.43818529 -2.81640625 18.96875 C-2.81640625 17.97875 -2.81640625 16.98875 -2.81640625 15.96875 C-11.39640625 15.96875 -19.97640625 15.96875 -28.81640625 15.96875 C-29.14640625 17.28875 -29.47640625 18.60875 -29.81640625 19.96875 C-32.89966975 21.51038175 -35.42518724 21.26622535 -38.81640625 20.96875 C-40.44140625 19.09375 -40.44140625 19.09375 -41.81640625 16.96875 C-44.36824029 15.76424696 -44.36824029 15.76424696 -46.81640625 14.96875 C-48.38667942 13.39847683 -47.98615011 11.82605053 -48.00390625 9.65625 C-48.01808594 8.87636719 -48.03226563 8.09648437 -48.046875 7.29296875 C-47.78332268 4.63511058 -47.31030557 3.18462499 -45.81640625 0.96875 C-43.64453125 -0.69921875 -43.64453125 -0.69921875 -41.06640625 -2.21875 C-40.2259375 -2.72792969 -39.38546875 -3.23710938 -38.51953125 -3.76171875 C-25.99249025 -9.64508338 -11.5542292 -6.13745776 0 0 Z M-19.81640625 -3.03125 C-19.81640625 -1.71125 -19.81640625 -0.39125 -19.81640625 0.96875 C-15.85640625 0.96875 -11.89640625 0.96875 -7.81640625 0.96875 C-10.97750785 -2.1923516 -11.37256445 -2.41937741 -15.50390625 -2.71875 C-16.71626953 -2.81736328 -16.71626953 -2.81736328 -17.953125 -2.91796875 C-18.87544922 -2.97404297 -18.87544922 -2.97404297 -19.81640625 -3.03125 Z M-35.81640625 -1.03125 C-36.14640625 -0.37125 -36.47640625 0.28875 -36.81640625 0.96875 C-32.19640625 0.96875 -27.57640625 0.96875 -22.81640625 0.96875 C-22.81640625 -0.35125 -22.81640625 -1.67125 -22.81640625 -3.03125 C-27.48452315 -3.32300731 -31.37140401 -2.36475067 -35.81640625 -1.03125 Z M-43.81640625 3.96875 C-45.29472885 6.92539519 -44.87673408 9.71104737 -44.81640625 12.96875 C-42.359552 12.54515444 -41.11991505 12.31364637 -39.44140625 10.40625 C-37.81640625 8.96875 -37.81640625 8.96875 -34.81640625 8.53125 C-33.82640625 8.675625 -32.83640625 8.82 -31.81640625 8.96875 C-31.38070313 9.62681641 -30.945 10.28488281 -30.49609375 10.96289062 C-28.95250259 13.2348004 -28.95250259 13.2348004 -26.13671875 13.48632812 C-24.55503906 13.4930957 -24.55503906 13.4930957 -22.94140625 13.5 C-21.7915625 13.50515625 -20.64171875 13.5103125 -19.45703125 13.515625 C-18.255625 13.50015625 -17.05421875 13.4846875 -15.81640625 13.46875 C-14.615 13.48421875 -13.41359375 13.4996875 -12.17578125 13.515625 C-11.0259375 13.51046875 -9.87609375 13.5053125 -8.69140625 13.5 C-7.63695312 13.49548828 -6.5825 13.49097656 -5.49609375 13.48632812 C-2.68112166 13.23420049 -2.68112166 13.23420049 -1.1328125 10.96679688 C-0.69839844 10.30744141 -0.26398437 9.64808594 0.18359375 8.96875 C3.12109375 8.46875 3.12109375 8.46875 6.18359375 8.96875 C8.37109375 10.96875 8.37109375 10.96875 10.18359375 12.96875 C11.17359375 12.96875 12.16359375 12.96875 13.18359375 12.96875 C12.68859375 9.99875 12.68859375 9.99875 12.18359375 6.96875 C4.72850926 4.5876295 -1.92478547 3.54541298 -9.734375 3.67578125 C-11.2092614 3.68214851 -11.2092614 3.68214851 -12.71394348 3.68864441 C-15.81089329 3.70524752 -18.90715787 3.74286355 -22.00390625 3.78125 C-24.1217353 3.79632063 -26.23957469 3.81000483 -28.35742188 3.82226562 C-33.51067499 3.85509053 -38.66342503 3.90674251 -43.81640625 3.96875 Z M-36.81640625 10.96875 C-37.47640625 11.62875 -38.13640625 12.28875 -38.81640625 12.96875 C-38.49788855 15.07695797 -38.49788855 15.07695797 -37.81640625 16.96875 C-36.16025968 17.35093767 -34.49183601 17.68270102 -32.81640625 17.96875 C-31.52007004 16.90229885 -31.52007004 16.90229885 -31.75390625 14.40625 C-31.77453125 13.601875 -31.79515625 12.7975 -31.81640625 11.96875 C-34.21360057 11.28916397 -34.21360057 11.28916397 -36.81640625 10.96875 Z M0.18359375 11.96875 C0.18359375 13.61875 0.18359375 15.26875 0.18359375 16.96875 C2.58078807 17.64833603 2.58078807 17.64833603 5.18359375 17.96875 C5.84359375 17.30875 6.50359375 16.64875 7.18359375 15.96875 C6.86507605 13.86054203 6.86507605 13.86054203 6.18359375 11.96875 C3.13446147 10.95763907 3.13446147 10.95763907 0.18359375 11.96875 Z " fill="#6A8C99" transform="translate(47.81640625,6.03125)"/>
</svg>
