<?xml version="1.0" encoding="UTF-8"?>
<svg version="1.1" xmlns="http://www.w3.org/2000/svg" width="64" height="40">
<path d="M0 0 C14.19 0 28.38 0 43 0 C43 7 43 7 42 9 C42.556875 8.91878906 43.11375 8.83757813 43.6875 8.75390625 C47.44605355 8.44280976 50.0296461 8.40399583 53.30859375 10.41796875 C56.6105563 13.25947414 59.49208889 15.83458218 61 20 C61.23046875 23.1640625 61.23046875 23.1640625 61.1875 26.625 C61.18105469 27.77226562 61.17460938 28.91953125 61.16796875 30.1015625 C61 33 61 33 60 35 C58.35 34.67 56.7 34.34 55 34 C54.34 35.32 53.68 36.64 53 38 C51.02 38 49.04 38 47 38 C46.34 36.68 45.68 35.36 45 34 C44.01 34.33 43.02 34.66 42 35 C40.03171699 35.09448329 38.06039208 35.13071729 36.08984375 35.1328125 C34.35831055 35.13474609 34.35831055 35.13474609 32.59179688 35.13671875 C31.38587891 35.13285156 30.17996094 35.12898438 28.9375 35.125 C27.12282227 35.13080078 27.12282227 35.13080078 25.27148438 35.13671875 C23.54188477 35.13478516 23.54188477 35.13478516 21.77734375 35.1328125 C20.71765381 35.13168457 19.65796387 35.13055664 18.56616211 35.12939453 C16 35 16 35 14 34 C13.34 35.32 12.68 36.64 12 38 C10.02 38 8.04 38 6 38 C5.34 36.68 4.68 35.36 4 34 C2.02 34.495 2.02 34.495 0 35 C0 33.68 0 32.36 0 31 C-0.99 31.33 -1.98 31.66 -3 32 C-3 31.01 -3 30.02 -3 29 C-2.01 29 -1.02 29 0 29 C0 19.43 0 9.86 0 0 Z M2 2 C2 9.26 2 16.52 2 24 C14.54 24 27.08 24 40 24 C40 16.74 40 9.48 40 2 C27.46 2 14.92 2 2 2 Z M43 11 C42.505 21.395 42.505 21.395 42 32 C42.99 32 43.98 32 45 32 C45.78375 31.154375 46.5675 30.30875 47.375 29.4375 C48.24125 28.633125 49.1075 27.82875 50 27 C52.8125 27.1875 52.8125 27.1875 55 28 C55.33 29.32 55.66 30.64 56 32 C56.99 31.67 57.98 31.34 59 31 C59 28.03 59 25.06 59 22 C55.37 21.67 51.74 21.34 48 21 C48 17.7 48 14.4 48 11 C46.35 11 44.7 11 43 11 Z M51 13 C51 15.31 51 17.62 51 20 C52.98 20 54.96 20 57 20 C56.34 18.68 55.68 17.36 55 16 C54.34 16 53.68 16 53 16 C52.67 15.01 52.34 14.02 52 13 C51.67 13 51.34 13 51 13 Z M2 26 C2 27.98 2 29.96 2 32 C4.22237838 32.22054055 4.22237838 32.22054055 6.125 30.125 C8.22054055 28.22237838 8.22054055 28.22237838 8 26 C6.02 26 4.04 26 2 26 Z M9 26 C13.05505937 32.09574003 13.05505937 32.09574003 16.9543457 32.68115234 C18.01741943 32.64973145 19.08049316 32.61831055 20.17578125 32.5859375 C21.33271484 32.56660156 22.48964844 32.54726563 23.68164062 32.52734375 C25.47891602 32.45193359 25.47891602 32.45193359 27.3125 32.375 C28.53001953 32.34792969 29.74753906 32.32085937 31.00195312 32.29296875 C34.00310498 32.22235341 37.00064712 32.12376972 40 32 C40 30.02 40 28.04 40 26 C29.77 26 19.54 26 9 26 Z M6.375 30.375 C4.78468592 31.89968321 4.78468592 31.89968321 5 34 C5.66 34 6.32 34 7 34 C7 34.66 7 35.32 7 36 C8.65 35.67 10.3 35.34 12 35 C12 33.68 12 32.36 12 31 C11.34 31 10.68 31 10 31 C10 30.34 10 29.68 10 29 C7.89968321 28.78468592 7.89968321 28.78468592 6.375 30.375 Z M47 30 C47 31.65 47 33.3 47 35 C49.475 35.495 49.475 35.495 52 36 C52.66 34.68 53.32 33.36 54 32 C52.62514468 30.45833358 52.62514468 30.45833358 51 29 C48.9254644 28.8509288 48.9254644 28.8509288 47 30 Z " fill="#E38178" transform="translate(3,1)"/>
<path d="M0 0 C3.96 0 7.92 0 12 0 C12 0.66 12 1.32 12 2 C8.04 2 4.08 2 0 2 C0 1.34 0 0.68 0 0 Z " fill="#E48178" transform="translate(28,21)"/>
</svg>
